HIERARCHY
ROOT Hips
{
	OFFSET 0.000000 0.000000 0.000000
	CHANNELS 6 Xposition Yposition Zposition Xrotation Yrotation Zrotation
	JOINT LeftUpLeg_virtual
	{
		OFFSET 0.000000 0.000000 0.000000
		CHANNELS 3 Xrotation Yrotation Zrotation
		JOINT LeftUpLeg
		{
			OFFSET 10.205400 -3.823500 0.155100
			CHANNELS 3 Xrotation Yrotation Zrotation
			JOINT LeftLeg
			{
				OFFSET 0.708757 -12.982077 0.567790
				CHANNELS 3 Xrotation Yrotation Zrotation
				JOINT LeftFoot
				{
					OFFSET -0.708756 -10.717838 -2.184338
					CHANNELS 3 Xrotation Yrotation Zrotation
					JOINT LeftToeBase
					{
						OFFSET 0.108149 -7.191104 7.560241
						CHANNELS 3 Xrotation Yrotation Zrotation
						JOINT LeftToe_End
						{
							OFFSET 0.070230 0.081724 4.490308
							CHANNELS 3 Xrotation Yrotation Zrotation
							End Site
							{
								OFFSET 0 0 0
							}
						}
					}
				}
			}
		}
	}
	JOINT RightUpLeg_virtual
	{
		OFFSET 0.000000 0.000000 0.000000
		CHANNELS 3 Xrotation Yrotation Zrotation
		JOINT RightUpLeg
		{
			OFFSET -10.205400 -3.823500 0.005500
			CHANNELS 3 Xrotation Yrotation Zrotation
			JOINT RightLeg
			{
				OFFSET -0.708756 -12.982134 0.610632
				CHANNELS 3 Xrotation Yrotation Zrotation
				JOINT RightFoot
				{
					OFFSET 0.708754 -10.717769 -1.945823
					CHANNELS 3 Xrotation Yrotation Zrotation
					JOINT RightToeBase
					{
						OFFSET -0.108140 -7.191069 7.372968
						CHANNELS 3 Xrotation Yrotation Zrotation
						JOINT RightToe_End
						{
							OFFSET -0.070227 0.081735 4.479403
							CHANNELS 3 Xrotation Yrotation Zrotation
							End Site
							{
								OFFSET 0 0 0
							}
						}
					}
				}
			}
		}
	}
	JOINT Spine_virtual
	{
		OFFSET 0.000000 0.000000 0.000000
		CHANNELS 3 Xrotation Yrotation Zrotation
		JOINT Spine
		{
			OFFSET 0.000000 6.876099 0.125700
			CHANNELS 3 Xrotation Yrotation Zrotation
			JOINT Spine1
			{
				OFFSET 0.000000 5.730043 0.104720
				CHANNELS 3 Xrotation Yrotation Zrotation
				JOINT Spine1_split
				{
					OFFSET 0.000000 5.730043 0.104720
					CHANNELS 3 Xrotation Yrotation Zrotation
					JOINT Spine2
					{
						OFFSET 0.000000 5.730043 0.104720
						CHANNELS 3 Xrotation Yrotation Zrotation
						JOINT Neck_virtual
						{
							OFFSET 0.000000 0.000000 0.000000
							CHANNELS 3 Xrotation Yrotation Zrotation
							JOINT Neck
							{
								OFFSET 0.000000 10.314075 0.188496
								CHANNELS 3 Xrotation Yrotation Zrotation
								JOINT Head
								{
									OFFSET 0.000000 7.643700 -2.377400
									CHANNELS 3 Xrotation Yrotation Zrotation
									JOINT HeadTop_End
									{
										OFFSET 0.000000 43.788605 -13.619600
										CHANNELS 3 Xrotation Yrotation Zrotation
										End Site
										{
											OFFSET 0 0 0
										}
									}
								}
							}
						}
						JOINT LeftShoulder_virtual
						{
							OFFSET 0.000000 0.000000 0.000000
							CHANNELS 3 Xrotation Yrotation Zrotation
							JOINT LeftShoulder
							{
								OFFSET 2.196100 4.412489 0.087492
								CHANNELS 3 Xrotation Yrotation Zrotation
								JOINT LeftShoulder_split
								{
									OFFSET 2.196100 4.412489 0.087492
									CHANNELS 3 Xrotation Yrotation Zrotation
									JOINT LeftArm
									{
										OFFSET 8.771219 -2.981674 -0.026999
										CHANNELS 3 Xrotation Yrotation Zrotation
										JOINT LeftForeArm
										{
											OFFSET 8.512804 0.000000 -0.000000
											CHANNELS 3 Xrotation Yrotation Zrotation
											JOINT LeftHand
											{
												OFFSET 18.484802 0.000000 -0.000000
												CHANNELS 3 Xrotation Yrotation Zrotation
												End Site
												{
													OFFSET 0 0 0
												}
											}
										}
									}
								}
							}
						}
						JOINT RightShoulder_virtual
						{
							OFFSET 0.000000 0.000000 0.000000
							CHANNELS 3 Xrotation Yrotation Zrotation
							JOINT RightShoulder
							{
								OFFSET -2.196100 4.412496 0.070690
								CHANNELS 3 Xrotation Yrotation Zrotation
								JOINT RightShoulder_split
								{
									OFFSET -2.196100 4.412496 0.070690
									CHANNELS 3 Xrotation Yrotation Zrotation
									JOINT RightArm
									{
										OFFSET -8.771282 -2.981682 -0.094208
										CHANNELS 3 Xrotation Yrotation Zrotation
										JOINT RightForeArm
										{
											OFFSET -8.494598 0.000000 0.000000
											CHANNELS 3 Xrotation Yrotation Zrotation
											JOINT RightHand
											{
												OFFSET -18.483803 0.000000 0.000001
												CHANNELS 3 Xrotation Yrotation Zrotation
												End Site
												{
													OFFSET 0 0 0
												}
											}
										}
									}
								}
							}
						}
					}
				}
			}
		}
	}
}
MOTION
Frames: 10
Frame Time: 0.03333333
-0.741565 22.841948 -34.710030 0.000000 0.000000 0.000000 38.916058 -69.630234 28.670590 -71.839684 -27.570685 33.602728 44.653308 -11.320382 8.640845 15.759630 -3.544451 -30.793204 -4.311363 1.018898 2.277327 0.000000 0.000000 0.000000 39.894582 -70.305118 30.081424 4.094183 -4.167128 -43.553828 30.597431 3.303086 -1.738280 -1.367674 -32.459518 47.555086 -1.966318 0.705944 -3.414234 0.000000 0.000000 0.000000 37.944675 -66.340193 27.503647 1.613251 10.702293 -3.388368 -2.685858 4.989072 0.303713 0.972142 -2.999546 1.410713 0.000000 0.000000 0.000000 -1.388149 3.094229 0.679372 10.532804 5.158579 -6.209461 5.032508 18.385099 9.652229 0.000000 0.000000 0.000000 -2.137573 3.572434 0.679283 3.330541 3.562594 -13.151121 3.751384 0.646980 1.755067 -51.206550 -31.765028 -49.825441 -2.852458 -77.334113 -0.891080 0.000000 0.000000 0.000000 -2.417237 3.231165 0.708694 -13.680934 -1.214780 -1.022766 -1.469849 -1.658053 -1.299706 -106.081341 35.372996 120.698622 -2.986738 28.856863 2.701102 0.000000 0.000000 0.000000 
-0.461192 23.399372 -37.253777 0.000000 0.000000 0.000000 42.146744 -70.608440 31.609405 -71.031768 -23.859166 33.353900 40.769611 -9.238026 8.232140 17.777936 -1.514116 -26.504412 -4.955159 0.905165 1.007837 0.000000 0.000000 0.000000 39.869710 -71.024364 30.320928 -1.265965 -4.680928 -38.155776 41.484810 3.083951 0.278237 -11.384142 -33.078743 42.341948 0.455755 0.683281 -3.966553 0.000000 0.000000 0.000000 39.126336 -67.280621 28.659183 1.590919 9.649508 -3.074663 -2.733062 4.379359 0.487981 0.712120 -1.972756 1.212197 0.000000 0.000000 0.000000 -1.340463 2.451732 0.919925 10.664740 5.559272 -6.264065 4.644599 19.336252 8.980480 0.000000 0.000000 0.000000 -2.167139 2.958916 0.937151 3.304662 3.537806 -13.003085 4.749461 1.015780 1.562919 -50.029554 -31.656738 -49.786096 -2.713950 -78.333889 -0.732245 0.000000 0.000000 0.000000 -2.478399 2.550926 0.950377 -13.870093 -1.731879 -1.777819 -0.748877 -1.133803 -1.735831 -105.789071 35.243503 120.709237 -3.275826 28.988098 2.924678 0.000000 0.000000 0.000000 
-0.202846 24.104519 -39.545418 0.000000 0.000000 0.000000 44.333047 -70.940681 33.449270 -73.221855 -20.012661 31.757890 40.503438 -7.424479 6.858322 18.866719 -0.419400 -20.960611 -5.074571 0.853098 -0.237875 0.000000 0.000000 0.000000 40.021961 -71.387156 30.633699 -5.065267 -6.506967 -31.382957 49.376564 3.170373 2.132171 -21.157691 -33.036505 37.364594 1.508631 0.517624 -3.600826 0.000000 0.000000 0.000000 40.788712 -67.888331 29.713573 1.456495 8.575751 -2.650590 -2.735635 3.601619 0.708641 0.649720 -0.840564 0.871932 0.000000 0.000000 0.000000 -1.365143 1.613505 1.182233 10.742860 5.881849 -6.276264 3.944306 20.390370 8.270049 0.000000 0.000000 0.000000 -2.200934 2.187878 1.210614 3.284384 3.422047 -12.658911 5.519362 1.771144 1.353355 -49.204024 -31.876257 -49.648095 -1.875460 -78.841912 0.010572 0.000000 0.000000 0.000000 -2.525291 1.737062 1.212190 -14.107176 -2.312873 -2.574929 -0.194592 -0.690064 -2.235648 -106.111613 35.162599 121.223618 -3.575049 27.909760 3.060123 0.000000 0.000000 0.000000 
-0.051135 24.872778 -41.425835 0.000000 0.000000 0.000000 45.037325 -70.508630 33.887178 -77.104339 -16.524396 29.280167 42.868040 -6.224145 4.850160 19.029069 -0.112474 -15.498379 -4.406228 0.831288 -1.052428 0.000000 0.000000 0.000000 39.807698 -71.084101 30.512576 -6.852166 -9.050997 -24.989126 52.584441 3.315567 3.495366 -28.305427 -32.364722 34.093111 0.672071 0.214267 -2.511585 0.000000 0.000000 0.000000 42.299027 -68.210347 30.417254 1.226881 7.620475 -2.232915 -2.685907 2.874104 0.887014 0.610216 0.326823 0.589195 0.000000 0.000000 0.000000 -1.465256 0.816405 1.353827 10.738732 6.070034 -6.265734 3.072499 21.333930 7.751483 0.000000 0.000000 0.000000 -2.240603 1.457749 1.405893 3.276576 3.325622 -12.149580 6.019477 2.912365 1.138710 -48.819433 -32.153047 -49.378313 -0.738257 -78.963790 0.970966 0.000000 0.000000 0.000000 -2.543884 0.997053 1.394797 -14.360213 -2.969513 -3.258825 0.192109 -0.440578 -2.554488 -106.913142 35.268980 122.318456 -3.750017 26.291435 3.048214 0.000000 0.000000 0.000000 
0.053139 25.630762 -42.779587 0.000000 0.000000 0.000000 44.294460 -69.585728 33.040719 -81.191941 -13.811868 26.363149 46.438688 -5.854301 2.897618 18.828554 -0.579853 -11.943473 -3.560581 0.799150 -1.099298 0.000000 0.000000 0.000000 39.853140 -70.454043 30.550483 -6.851733 -11.522369 -19.839606 51.486973 2.752198 4.434527 -33.388751 -31.667995 31.306367 -0.110846 -0.211062 -1.298609 0.000000 0.000000 0.000000 43.578075 -68.539118 31.101861 0.987753 6.862522 -1.901191 -2.600868 2.365201 0.986937 0.669491 1.422917 0.641779 0.000000 0.000000 0.000000 -1.623697 0.252083 1.379167 10.630047 6.142963 -6.222895 2.230329 21.987820 7.512652 0.000000 0.000000 0.000000 -2.296728 0.932298 1.481339 3.265084 3.254246 -11.627959 6.238277 4.186113 0.998145 -48.723134 -32.293718 -48.927189 0.043601 -78.829044 1.548478 0.000000 0.000000 0.000000 -2.540425 0.492947 1.460674 -14.571213 -3.673073 -3.646893 0.380671 -0.334504 -2.576552 -107.783069 35.601395 123.840960 -3.715527 24.892601 2.889034 0.000000 0.000000 0.000000 
0.067102 26.211859 -43.628372 0.000000 0.000000 0.000000 42.847378 -68.515205 31.707340 -84.497541 -11.986187 23.638638 49.953500 -5.889263 1.477058 18.617936 -1.236257 -10.376718 -3.062269 0.766254 -0.630495 0.000000 0.000000 0.000000 40.441612 -69.593453 30.923097 -6.100471 -13.454667 -16.555453 47.680687 1.552949 5.210333 -36.947481 -31.089406 28.647364 0.396827 -0.529107 -0.489727 0.000000 0.000000 0.000000 43.952383 -68.873189 31.420438 0.834891 6.365100 -1.713812 -2.524237 2.118698 1.012912 0.875524 2.105193 0.745806 0.000000 0.000000 0.000000 -1.805817 -0.002009 1.290568 10.520073 6.091599 -6.107937 1.589755 22.259848 7.575994 0.000000 0.000000 0.000000 -2.387739 0.668691 1.450938 3.242688 3.199604 -11.173834 6.227893 5.206047 0.962606 -48.692132 -32.248059 -48.324019 0.139730 -78.614999 1.454453 0.000000 0.000000 0.000000 -2.502075 0.278263 1.437855 -14.704987 -4.363913 -3.753468 0.357917 -0.495167 -2.264176 -108.442394 36.094531 125.408612 -3.471590 24.171228 2.624504 0.000000 0.000000 0.000000 
0.013196 26.598248 -44.031952 0.000000 0.000000 0.000000 41.703421 -67.748715 30.816874 -86.724066 -11.065149 21.586342 52.775174 -5.918553 0.835751 18.851406 -1.848134 -10.695885 -2.692181 0.722316 -0.119014 0.000000 0.000000 0.000000 41.030545 -68.583698 31.140485 -5.478990 -14.773457 -15.171262 44.439659 0.264272 5.880014 -39.349789 -30.630629 26.234751 1.826195 -0.673724 -0.373857 0.000000 0.000000 0.000000 42.527299 -69.159921 30.605750 0.951779 6.026190 -1.707100 -2.467822 2.073304 0.987309 0.905266 2.045843 1.189122 0.000000 0.000000 0.000000 -1.933760 0.003405 1.184343 10.543266 5.980894 -5.867034 1.235987 22.034259 7.912197 0.000000 0.000000 0.000000 -2.472207 0.631180 1.362907 3.232127 3.242914 -10.876239 6.011840 5.736809 0.994295 -48.601283 -32.096961 -47.697673 -0.390663 -78.387397 0.762995 0.000000 0.000000 0.000000 -2.432843 0.306529 1.388827 -14.765489 -4.943270 -3.649664 0.178233 -0.824347 -1.802881 -108.774212 36.586718 126.540920 -3.127251 24.105939 2.327197 0.000000 0.000000 0.000000 
-0.048167 26.792517 -44.212234 0.000000 0.000000 0.000000 41.198284 -67.564955 30.587237 -87.749926 -10.908703 20.550642 54.648094 -5.877201 0.786727 19.498006 -2.411278 -12.062196 -2.597397 0.641973 0.268873 0.000000 0.000000 0.000000 41.125860 -67.908698 30.994183 -5.380151 -15.191316 -15.084068 43.718009 -0.311676 6.305602 -40.478891 -30.171657 24.583073 2.725013 -0.614741 -0.859610 0.000000 0.000000 0.000000 40.089365 -69.230879 29.012830 1.332492 5.793386 -1.754898 -2.460496 2.104435 0.962999 1.065191 1.275148 1.449880 0.000000 0.000000 0.000000 -1.971582 0.144790 1.148367 10.787725 5.859920 -5.498971 1.202168 21.327397 8.381492 0.000000 0.000000 0.000000 -2.518953 0.708242 1.266050 3.239461 3.256696 -10.711698 5.642669 5.769615 1.064858 -48.496454 -31.852440 -47.157036 -1.302038 -78.123567 -0.274124 0.000000 0.000000 0.000000 -2.358004 0.468748 1.386138 -14.754346 -5.338974 -3.455103 -0.079168 -1.052344 -1.437226 -108.836141 36.972074 126.984459 -2.804338 24.202531 2.086940 0.000000 0.000000 0.000000 
-0.139038 26.828020 -44.337486 0.000000 0.000000 0.000000 40.748803 -67.953900 30.508635 -87.830290 -11.234783 20.411735 55.482416 -5.465371 1.146666 20.036773 -2.636525 -12.875910 -2.533954 0.537548 0.286404 0.000000 0.000000 0.000000 40.503596 -67.765462 30.383181 -5.775580 -14.591249 -15.615967 45.237589 0.141174 6.520070 -40.460664 -29.636525 24.087142 2.828184 -0.428558 -1.282977 0.000000 0.000000 0.000000 37.102561 -68.959598 26.695374 1.862729 5.670687 -1.717176 -2.532694 2.120485 0.981040 1.362152 0.260990 1.236693 0.000000 0.000000 0.000000 -1.935138 0.281090 1.203660 11.252482 5.804255 -5.055592 1.425938 20.300965 8.852805 0.000000 0.000000 0.000000 -2.538568 0.779176 1.198972 3.266465 3.223104 -10.628761 5.346636 5.551731 1.124059 -48.439101 -31.523420 -46.771636 -2.158253 -77.837976 -1.221935 0.000000 0.000000 0.000000 -2.312616 0.636674 1.447777 -14.694752 -5.578636 -3.322918 -0.347155 -1.200898 -1.252996 -108.890482 37.217660 126.829100 -2.609698 24.147029 2.007497 0.000000 0.000000 0.000000 
-0.194385 26.821896 -44.277824 0.000000 0.000000 0.000000 39.398935 -68.782300 29.604909 -87.471528 -12.125108 20.678408 55.900030 -4.861150 2.009429 20.832623 -2.861125 -13.373670 -2.107687 0.413692 -0.139042 0.000000 0.000000 0.000000 39.363961 -68.319350 29.408039 -6.203457 -13.059564 -15.831856 47.302274 0.971494 6.446334 -40.165341 -29.009640 24.167701 3.239717 -0.221123 -1.027665 0.000000 0.000000 0.000000 35.000119 -68.785408 24.839317 2.335026 5.674431 -1.498827 -2.657699 2.122233 1.028749 1.803270 -0.694005 1.012273 0.000000 0.000000 0.000000 -1.879252 0.330345 1.294854 11.824083 5.937888 -4.623533 1.813359 19.267776 9.133028 0.000000 0.000000 0.000000 -2.560156 0.780974 1.165860 3.298435 3.142267 -10.625321 5.144898 5.322199 1.255704 -48.462135 -31.098982 -46.583540 -2.666911 -77.495080 -1.785125 0.000000 0.000000 0.000000 -2.366288 0.713366 1.528747 -14.604240 -5.733504 -3.258190 -0.550417 -1.164006 -1.229512 -109.095996 37.410777 126.520170 -2.578823 23.961514 2.121772 0.000000 0.000000 0.000000 
